<svg width="236" height="15" viewBox="0 0 236 15" fill="none" xmlns="http://www.w3.org/2000/svg">
<path d="M13.896 1.79402C15.354 1.79402 16.65 3.00002 16.65 4.53002V14.394H13.914V4.89002C13.914 4.45802 13.554 4.09802 13.122 4.09802H9.666V14.394H6.93V4.09802H2.736V14.394H0V1.79402H13.896Z" fill="#1C1C1C"/>
<path d="M27.1744 4.09802C28.5424 4.09802 29.6404 5.19602 29.6404 6.56402V14.394H21.1984C19.8304 14.394 18.7324 13.278 18.7324 11.928V10.578C18.7324 9.21002 19.8484 8.11202 21.1984 8.11202H27.0304V7.08602C27.0304 6.69002 26.7244 6.38402 26.3284 6.38402H19.3624V4.09802H27.1744ZM22.0444 12.108H27.0304V10.38H22.0444C21.6664 10.38 21.3424 10.686 21.3424 11.082V11.406C21.3424 11.802 21.6664 12.108 22.0444 12.108Z" fill="#1C1C1C"/>
<path d="M40.3287 4.09802C41.6427 4.09802 42.7947 5.17802 42.7947 6.56402V14.394H40.1847V7.12202C40.1847 6.72602 39.8787 6.42002 39.4827 6.42002H34.4067V14.394H31.7967V0.606018H34.4067V4.09802H40.3287Z" fill="#1C1C1C"/>
<path d="M44.8573 4.09802H47.4673V14.394H44.8573V4.09802ZM44.8573 0.606018H47.4673V2.92802H44.8573V0.606018Z" fill="#1C1C1C"/>
<path d="M49.6209 4.09802H58.1529C59.4669 4.09802 60.6189 5.19602 60.6189 6.56402V14.394H58.0089V7.12202C58.0089 6.72602 57.7029 6.42002 57.3069 6.42002H52.2309V14.394H49.6209V4.09802Z" fill="#1C1C1C"/>
<path d="M62.625 11.928V6.56402C62.625 5.25002 63.7049 4.09802 65.091 4.09802H71.013V0.606018H73.623V14.394H65.091C63.777 14.394 62.625 13.314 62.625 11.928ZM65.235 7.12202V11.37C65.235 11.766 65.5409 12.072 65.937 12.072H71.013V6.42002H65.937C65.5409 6.42002 65.235 6.72602 65.235 7.12202Z" fill="#1C1C1C"/>
<path d="M78.2432 4.09802H84.0932V6.42002H79.0892C78.6932 6.42002 78.3872 6.72602 78.3872 7.12202V14.394H75.7772V6.56402C75.7772 5.25002 76.8572 4.09802 78.2432 4.09802Z" fill="#1C1C1C"/>
<path d="M93.2681 4.09802C94.6361 4.09802 95.7341 5.19602 95.7341 6.56402V14.394H87.2921C85.9241 14.394 84.8261 13.278 84.8261 11.928V10.578C84.8261 9.21002 85.9421 8.11202 87.2921 8.11202H93.1241V7.08602C93.1241 6.69002 92.8181 6.38402 92.4221 6.38402H85.4561V4.09802H93.2681ZM88.1381 12.108H93.1241V10.38H88.1381C87.7601 10.38 87.4361 10.686 87.4361 11.082V11.406C87.4361 11.802 87.7601 12.108 88.1381 12.108Z" fill="#1C1C1C"/>
<path d="M116.466 4.53002V11.658C116.466 13.116 115.242 14.394 113.712 14.394H104.73V1.79402H113.712C115.17 1.79402 116.466 3.00002 116.466 4.53002ZM113.712 11.298V4.89002C113.712 4.45802 113.37 4.09802 112.938 4.09802H107.466V12.09H112.938C113.37 12.09 113.712 11.73 113.712 11.298Z" fill="#1C1C1C"/>
<path d="M118.471 11.928V6.56402C118.471 5.19602 119.569 4.09802 120.937 4.09802H127.093C128.461 4.09802 129.559 5.21402 129.559 6.56402V7.91402C129.559 9.28202 128.461 10.38 127.093 10.38H121.081V11.406C121.081 11.802 121.387 12.108 121.783 12.108H129.109V14.394H120.937C119.569 14.394 118.471 13.278 118.471 11.928ZM126.247 6.38402H121.783C121.387 6.38402 121.081 6.69002 121.081 7.08602V8.16602H126.247C126.643 8.16602 126.949 7.86002 126.949 7.46402V7.08602C126.949 6.69002 126.643 6.38402 126.247 6.38402Z" fill="#1C1C1C"/>
<path d="M139.833 4.09802C141.201 4.09802 142.299 5.19602 142.299 6.56402V14.394H133.857C132.489 14.394 131.391 13.278 131.391 11.928V10.578C131.391 9.21002 132.507 8.11202 133.857 8.11202H139.689V7.08602C139.689 6.69002 139.383 6.38402 138.987 6.38402H132.021V4.09802H139.833ZM134.703 12.108H139.689V10.38H134.703C134.325 10.38 134.001 10.686 134.001 11.082V11.406C134.001 11.802 134.325 12.108 134.703 12.108Z" fill="#1C1C1C"/>
<path d="M144.455 0.606018H147.065V14.394H144.455V0.606018Z" fill="#1C1C1C"/>
<path d="M149.057 11.928V6.56402C149.057 5.19602 150.155 4.09802 151.523 4.09802H157.679C159.047 4.09802 160.145 5.21402 160.145 6.56402V7.91402C160.145 9.28202 159.047 10.38 157.679 10.38H151.667V11.406C151.667 11.802 151.973 12.108 152.369 12.108H159.695V14.394H151.523C150.155 14.394 149.057 13.278 149.057 11.928ZM156.833 6.38402H152.369C151.973 6.38402 151.667 6.69002 151.667 7.08602V8.16602H156.833C157.229 8.16602 157.535 7.86002 157.535 7.46402V7.08602C157.535 6.69002 157.229 6.38402 156.833 6.38402Z" fill="#1C1C1C"/>
<path d="M164.605 4.09802H170.455V6.42002H165.451C165.055 6.42002 164.749 6.72602 164.749 7.12202V14.394H162.139V6.56402C162.139 5.25002 163.219 4.09802 164.605 4.09802Z" fill="#1C1C1C"/>
<path d="M188.094 1.79402V12.072H191.244C191.676 12.072 192.018 11.73 192.018 11.298V1.79402H194.772V11.658C194.772 13.098 193.53 14.394 192.018 14.394H178.734V1.79402H181.488V12.072H185.358V1.79402H188.094Z" fill="#1C1C1C"/>
<path d="M205.599 4.09802C206.913 4.09802 208.065 5.19602 208.065 6.56402V11.928C208.065 13.242 206.985 14.394 205.599 14.394H199.335C198.039 14.394 196.869 13.296 196.869 11.928V6.56402C196.869 5.26802 197.967 4.09802 199.335 4.09802H205.599ZM205.455 11.37V7.12202C205.455 6.72602 205.131 6.42002 204.753 6.42002H200.181C199.803 6.42002 199.479 6.72602 199.479 7.12202V11.37C199.479 11.766 199.803 12.072 200.181 12.072H204.753C205.131 12.072 205.455 11.766 205.455 11.37Z" fill="#1C1C1C"/>
<path d="M212.522 4.09802H218.372V6.42002H213.368C212.972 6.42002 212.666 6.72602 212.666 7.12202V14.394H210.056V6.56402C210.056 5.25002 211.136 4.09802 212.522 4.09802Z" fill="#1C1C1C"/>
<path d="M219.812 0.606018H222.422V14.394H219.812V0.606018Z" fill="#1C1C1C"/>
<path d="M224.414 11.928V6.56402C224.414 5.25002 225.494 4.09802 226.88 4.09802H232.802V0.606018H235.412V14.394H226.88C225.566 14.394 224.414 13.314 224.414 11.928ZM227.024 7.12202V11.37C227.024 11.766 227.33 12.072 227.726 12.072H232.802V6.42002H227.726C227.33 6.42002 227.024 6.72602 227.024 7.12202Z" fill="#1C1C1C"/>
</svg>
