<svg width="163" height="37" viewBox="0 0 163 37" fill="none" xmlns="http://www.w3.org/2000/svg">
<path fill-rule="evenodd" clip-rule="evenodd" d="M118.394 18.2197H126.578C128.426 18.2197 129.951 19.6859 129.951 21.4755V28.9575H117.728C116.59 28.9575 115.666 28.0734 115.666 26.9738V24.3864C115.666 23.373 116.525 22.5321 117.578 22.5321H124.366L123.657 24.0414H118.673C118.459 24.0414 118.201 24.2139 118.201 24.4511V26.4994C118.201 26.7366 118.437 26.9091 118.673 26.9091H127.33V22.0146C127.33 21.0659 126.493 20.3328 125.547 20.3328H117.427L118.394 18.2197ZM69.4382 15.891V14.2955H66.796V17.4004L69.4382 15.891ZM66.796 18.9097L69.4382 17.4004V28.979H66.796V18.9097ZM82.7566 18.2197C84.604 18.2197 86.1292 19.6859 86.1292 21.4755V28.9575H83.487V21.9715C83.487 21.0227 82.6492 20.2896 81.704 20.2896H75.367V28.9359H72.7248V18.1982C76.0544 18.2197 79.4055 18.2197 82.7566 18.2197ZM116.547 18.2197H109.909C108.062 18.2197 106.536 19.6859 106.536 21.4755V28.9575H109.179V21.9715C109.179 21.0227 110.016 20.2896 110.962 20.2896H115.537L116.547 18.2197ZM27.8719 28.9575H30.5141V21.4755C30.5141 19.6859 28.9889 18.2197 27.1416 18.2197H9.82764V28.9575H12.4698V20.6993C12.4698 20.4621 12.7061 20.3112 12.9424 20.3112H18.3987C18.6135 20.3112 18.8713 20.4837 18.8713 20.6993V28.9575H21.492V20.6993C21.492 20.4621 21.7283 20.3112 21.9646 20.3112H26.1105C27.0556 20.3112 27.8934 21.0443 27.8934 21.993L27.8719 28.9575ZM49.8902 14.317V28.9575H52.5324V14.317H49.8902ZM60.8672 28.9575H63.5094V21.4755C63.5094 19.6859 61.9842 18.2197 60.1368 18.2197H54.5302L53.5421 20.2896H59.1057C60.0509 20.2896 60.8887 21.0227 60.8887 21.9715L60.8672 28.9575ZM102.777 14.317V28.9575H90.8551C89.7165 28.9575 88.7929 28.0734 88.7929 26.9738V21.4755C88.7929 19.6859 90.318 18.2197 92.1654 18.2197H98.9535L97.9654 20.3112H93.218C92.2728 20.3112 91.435 21.0443 91.435 21.993V26.4994C91.435 26.7366 91.6713 26.9091 91.8862 26.9091H100.113V14.3386L102.777 14.317ZM35.5622 18.2197H43.7466C45.594 18.2197 47.1192 19.6859 47.1192 21.4755V28.9575H34.8963C33.7578 28.9575 32.8341 28.0734 32.8341 26.9738V24.3864C32.8341 23.373 33.6933 22.5321 34.7459 22.5321H41.534L40.8037 24.0414H35.82C35.6052 24.0414 35.3689 24.2139 35.3689 24.4511V26.4994C35.3689 26.7366 35.6052 26.9091 35.82 26.9091H44.477V22.0146C44.477 21.0659 43.6392 20.3328 42.694 20.3328H34.5741L35.5622 18.2197Z" fill="#E21D39"/>
<path fill-rule="evenodd" clip-rule="evenodd" d="M147.888 13.0233V12.9586C147.952 12.5921 148.017 12.2687 148.124 11.9452C148.232 11.6434 148.361 11.3631 148.554 11.1259C148.747 10.8887 148.984 10.6947 149.284 10.5653C149.585 10.4359 149.95 10.3712 150.401 10.3712H151.54L151.733 10.3928C151.926 10.4144 152.12 10.479 152.292 10.5653C152.463 10.6515 152.614 10.7378 152.743 10.8671C152.872 10.9965 153.001 11.1475 153.065 11.3199C153.129 11.4924 153.172 11.6649 153.172 11.8806V12.0099L153.151 12.1393C153.108 12.4627 153.022 12.7215 152.936 12.9371C152.829 13.1527 152.721 13.3036 152.549 13.433C152.399 13.5408 152.206 13.6271 151.991 13.6702C151.776 13.7133 151.54 13.7349 151.261 13.7349H149.112C149.069 13.9505 149.069 14.1661 149.069 14.3386C149.069 14.5111 149.112 14.662 149.177 14.7698C149.241 14.8776 149.37 14.9639 149.542 15.0286C149.735 15.0933 149.993 15.1148 150.337 15.1148H152.657L152.055 16.1282H149.649C148.876 16.1282 148.404 15.9342 148.124 15.5892C147.845 15.2442 147.738 14.813 147.738 14.317C147.738 14.123 147.759 13.9074 147.781 13.6917C147.824 13.4546 147.845 13.2389 147.888 13.0233ZM138.651 10.9318L140.176 10.0694L139.274 16.0635H137.813L137.942 15.2226C138.157 13.8211 138.372 12.4196 138.565 11.0181V10.975L138.651 10.9318ZM139.081 8.64629H140.391L140.284 9.42251L138.672 10.3281L138.93 8.64629H139.081ZM146.492 10.6947L146.041 11.4278H143.678L143.463 11.4493C143.398 11.4493 143.334 11.4709 143.269 11.4924C143.227 11.514 143.162 11.5356 143.141 11.5571C143.119 11.5787 143.076 11.6218 143.055 11.6649C143.033 11.7081 143.012 11.7727 142.99 11.8159C142.969 11.859 142.969 11.9237 142.969 11.9884C142.969 12.0315 142.969 12.0746 142.99 12.1177C143.012 12.1609 143.033 12.204 143.076 12.2471C143.119 12.2902 143.162 12.3118 143.227 12.3549C143.291 12.3765 143.377 12.4196 143.441 12.4412L145.418 12.9155C145.654 12.9802 145.869 13.0449 146.041 13.1527C146.212 13.2605 146.363 13.3899 146.47 13.5408C146.578 13.6917 146.664 13.8858 146.685 14.0799C146.728 14.2739 146.728 14.4895 146.685 14.7051C146.642 14.9639 146.556 15.2011 146.427 15.3736C146.32 15.5461 146.169 15.697 145.998 15.8048C145.826 15.9126 145.632 15.9773 145.418 16.0204C145.203 16.0635 144.988 16.0851 144.752 16.0851H140.885L141.487 15.0933H143.978C144.15 15.0933 144.301 15.0933 144.451 15.0717C144.601 15.0501 144.73 15.0286 144.838 14.9854C144.945 14.9423 145.031 14.8776 145.095 14.7914C145.16 14.7051 145.224 14.5758 145.246 14.4248C145.267 14.317 145.246 14.2308 145.224 14.1661C145.181 14.1014 145.138 14.0367 145.052 13.972C144.967 13.9074 144.859 13.8642 144.773 13.8211C144.666 13.778 144.558 13.7564 144.451 13.7349L142.711 13.3252C142.496 13.2821 142.303 13.1958 142.131 13.1096C141.959 13.0018 141.83 12.894 141.723 12.743C141.615 12.5921 141.551 12.4412 141.508 12.2471C141.465 12.0746 141.487 11.8806 141.508 11.6649C141.551 11.4278 141.637 11.2121 141.723 11.0396C141.83 10.8671 141.959 10.7378 142.131 10.63C142.281 10.5437 142.453 10.479 142.647 10.4359C142.84 10.3928 143.055 10.3712 143.269 10.3712H146.621L146.492 10.6947ZM134.613 15.9773L132.958 12.7215H131.369L130.875 16.0635H129.414L129.629 14.7267C129.973 12.5058 130.316 10.285 130.617 8.08568V8.021H134.849L135.064 8.04256C135.321 8.08568 135.558 8.15037 135.751 8.25818C135.966 8.36598 136.138 8.51692 136.288 8.68941C136.438 8.8619 136.524 9.05596 136.61 9.27158C136.675 9.4872 136.718 9.72438 136.718 9.98312V10.1987L136.696 10.4359C136.632 10.8456 136.524 11.169 136.374 11.4278C136.224 11.6865 136.009 11.9021 135.794 12.053C135.579 12.204 135.364 12.2902 135.107 12.3765C134.892 12.4412 134.677 12.4843 134.441 12.5274L136.331 16.0635H134.677L134.613 15.9773ZM134.076 9.09908H131.906L131.519 11.7296H133.216C133.474 11.7296 133.732 11.7081 133.968 11.6649C134.204 11.6218 134.419 11.5571 134.613 11.4493C134.784 11.3415 134.956 11.2121 135.064 11.0396C135.171 10.8671 135.278 10.6515 135.321 10.3712C135.364 10.134 135.364 9.91843 135.321 9.74594C135.278 9.59501 135.214 9.46563 135.128 9.35783C135.021 9.25002 134.892 9.18533 134.741 9.14221C134.548 9.12065 134.333 9.09908 134.076 9.09908ZM150.917 11.3631H150.401C149.95 11.3631 149.692 11.5356 149.542 11.7943C149.392 12.053 149.327 12.398 149.263 12.7861H151.003C151.11 12.7861 151.196 12.7646 151.282 12.743C151.346 12.7215 151.432 12.6783 151.475 12.6352C151.54 12.5921 151.604 12.5058 151.647 12.4196C151.69 12.3333 151.733 12.204 151.755 12.0746C151.776 11.9021 151.776 11.7727 151.755 11.6865C151.733 11.6002 151.69 11.5356 151.626 11.4924C151.561 11.4493 151.454 11.4062 151.346 11.3846C151.218 11.3846 151.067 11.3631 150.917 11.3631Z" fill="#E21D39"/>
</svg>