<svg width="150" height="19" viewBox="0 0 150 19" font-weight="900" fill="none" xmlns="http://www.w3.org/2000/svg">
<g clip-path="url(#clip0_461_1569)">
<path fill-rule="evenodd" clip-rule="evenodd" d="M32.1238 4.88934H42.3314C44.6474 4.88934 46.5345 6.71212 46.5345 8.94235V18.2278H31.2875C29.8722 18.2278 28.7142 17.1127 28.7142 15.7617C28.7142 14.6895 28.7142 13.6172 28.7142 12.5236C28.7142 11.2584 29.7864 10.229 31.0945 10.229H39.5651L38.6644 12.1161H32.4455C32.1667 12.1161 31.8665 12.3306 31.8665 12.6094C31.8665 13.4457 31.8665 14.3035 31.8665 15.1398C31.8665 15.44 32.1667 15.633 32.4455 15.633H43.2535V9.54279C43.2535 8.36335 42.2028 7.46268 41.0233 7.46268H30.9015L32.1238 4.88934ZM115.972 0.0214442V18.2278H101.089C99.674 18.2278 98.516 17.1127 98.516 15.7617C98.516 13.4886 98.516 11.2155 98.516 8.94235C98.516 6.71212 100.403 4.88934 102.719 4.88934H111.19L109.946 7.48412H104.027C102.848 7.48412 101.797 8.38479 101.797 9.56424C101.797 11.4299 101.797 13.2956 101.797 15.1612C101.797 15.4615 102.097 15.6545 102.376 15.6545H112.648V0.0214442H115.972ZM63.6901 18.2278H66.9926C66.9926 15.1398 66.9926 12.0304 66.9926 8.94235C66.9926 6.71212 65.1055 4.88934 62.7895 4.88934H55.7985L54.5333 7.46268H61.4813C62.6608 7.46268 63.7116 8.36335 63.7116 9.54279V18.2278H63.6901ZM49.9871 0.0214442V18.2278H53.2896V0.0214442H49.9871ZM22.5167 18.2278H25.7977C25.7977 15.1398 25.7977 12.0304 25.7977 8.94235C25.7977 6.71212 23.9106 4.88934 21.5946 4.88934C15.0969 4.88934 6.49768 4.88934 0 4.88934V18.2278H3.30245V7.97735C3.30245 7.67712 3.60267 7.48412 3.88145 7.48412C5.81146 7.48412 8.77079 7.48412 10.7008 7.48412C10.9796 7.48412 11.2798 7.69857 11.2798 7.97735V18.2493H14.5823V7.97735C14.5823 7.67712 14.8825 7.48412 15.1613 7.48412C16.5337 7.48412 18.9569 7.48412 20.3294 7.48412C21.5088 7.48412 22.5596 8.38479 22.5596 9.56424V18.2278H22.5167ZM133.17 4.88934H124.893C122.577 4.88934 120.69 6.71212 120.69 8.94235V18.2278H123.992C123.992 15.3328 123.992 12.4378 123.992 9.54279C123.992 8.36335 125.043 7.46268 126.222 7.46268H131.926L133.17 4.88934ZM90.989 4.88934C93.305 4.88934 95.1921 6.71212 95.1921 8.94235V18.2278H91.8896C91.8896 15.3328 91.8896 12.4378 91.8896 9.54279C91.8896 8.36335 90.8388 7.46268 89.6594 7.46268H81.7678V18.2278H78.4654V4.88934C82.647 4.88934 86.8287 4.88934 90.989 4.88934ZM71.0885 5.72568L74.3909 3.83856V18.2278H71.0885V5.72568ZM74.3909 1.97289V0H71.0885V3.86001L74.3909 1.97289ZM135.465 4.88934H145.672C147.988 4.88934 149.876 6.71212 149.876 8.94235V18.2278H134.628C133.213 18.2278 132.055 17.1127 132.055 15.7617C132.055 14.6895 132.055 13.6172 132.055 12.5236C132.055 11.2584 133.127 10.229 134.435 10.229H142.906L142.005 12.1161H135.786C135.508 12.1161 135.207 12.3306 135.207 12.6094C135.207 13.4457 135.207 14.3035 135.207 15.1398C135.207 15.44 135.508 15.633 135.786 15.633H146.594V9.54279C146.594 8.36335 145.544 7.46268 144.364 7.46268H134.242L135.465 4.88934Z" fill="#231F20"/>
</g>
<defs>
<clipPath id="clip0_461_1569">
<rect width="150" height="18.3871" fill="white"/>
</clipPath>
</defs>
</svg>
