<svg width="419" height="25" viewBox="0 0 419 25" fill="none" xmlns="http://www.w3.org/2000/svg">
<path d="M24.704 2.34393C27.296 2.34393 29.6 4.48793 29.6 7.20793V24.7439H24.736V7.84793C24.736 7.07993 24.096 6.43993 23.328 6.43993H17.184V24.7439H12.32V6.43993H4.864V24.7439H0V2.34393H24.704Z" fill="white"/>
<path d="M48.31 6.43993C50.742 6.43993 52.694 8.39193 52.694 10.8239V24.7439H37.686C35.254 24.7439 33.302 22.7599 33.302 20.3599V17.9599C33.302 15.5279 35.286 13.5759 37.686 13.5759H48.054V11.7519C48.054 11.0479 47.51 10.5039 46.806 10.5039H34.422V6.43993H48.31ZM39.19 20.6799H48.054V17.6079H39.19C38.518 17.6079 37.942 18.1519 37.942 18.8559V19.4319C37.942 20.1359 38.518 20.6799 39.19 20.6799Z" fill="white"/>
<path d="M71.6955 6.43993C74.0315 6.43993 76.0795 8.35993 76.0795 10.8239V24.7439H71.4395V11.8159C71.4395 11.1119 70.8955 10.5679 70.1915 10.5679H61.1675V24.7439H56.5275V0.231934H61.1675V6.43993H71.6955Z" fill="white"/>
<path d="M79.7462 6.43993H84.3863V24.7439H79.7462V6.43993ZM79.7462 0.231934H84.3863V4.35993H79.7462V0.231934Z" fill="white"/>
<path d="M88.215 6.43993H103.383C105.719 6.43993 107.767 8.39193 107.767 10.8239V24.7439H103.127V11.8159C103.127 11.1119 102.583 10.5679 101.879 10.5679H92.855V24.7439H88.215V6.43993Z" fill="white"/>
<path d="M111.333 20.3599V10.8239C111.333 8.48793 113.253 6.43993 115.717 6.43993H126.245V0.231934H130.885V24.7439H115.717C113.381 24.7439 111.333 22.8239 111.333 20.3599ZM115.973 11.8159V19.3679C115.973 20.0719 116.517 20.6159 117.221 20.6159H126.245V10.5679H117.221C116.517 10.5679 115.973 11.1119 115.973 11.8159Z" fill="white"/>
<path d="M139.099 6.43993H149.499V10.5679H140.603C139.899 10.5679 139.355 11.1119 139.355 11.8159V24.7439H134.715V10.8239C134.715 8.48793 136.635 6.43993 139.099 6.43993Z" fill="white"/>
<path d="M165.81 6.43993C168.242 6.43993 170.194 8.39193 170.194 10.8239V24.7439H155.186C152.754 24.7439 150.802 22.7599 150.802 20.3599V17.9599C150.802 15.5279 152.786 13.5759 155.186 13.5759H165.554V11.7519C165.554 11.0479 165.01 10.5039 164.306 10.5039H151.922V6.43993H165.81ZM156.69 20.6799H165.554V17.6079H156.69C156.018 17.6079 155.442 18.1519 155.442 18.8559V19.4319C155.442 20.1359 156.018 20.6799 156.69 20.6799Z" fill="white"/>
<path d="M207.051 7.20793V19.8799C207.051 22.4719 204.876 24.7439 202.156 24.7439H186.188V2.34393H202.156C204.747 2.34393 207.051 4.48793 207.051 7.20793ZM202.156 19.2399V7.84793C202.156 7.07993 201.548 6.43993 200.779 6.43993H191.051V20.6479H200.779C201.548 20.6479 202.156 20.0079 202.156 19.2399Z" fill="white"/>
<path d="M210.615 20.3599V10.8239C210.615 8.39193 212.566 6.43993 214.999 6.43993H225.943C228.375 6.43993 230.327 8.42393 230.327 10.8239V13.2239C230.327 15.6559 228.375 17.6079 225.943 17.6079H215.255V19.4319C215.255 20.1359 215.799 20.6799 216.503 20.6799H229.527V24.7439H214.999C212.566 24.7439 210.615 22.7599 210.615 20.3599ZM224.439 10.5039H216.503C215.799 10.5039 215.255 11.0479 215.255 11.7519V13.6719H224.439C225.143 13.6719 225.687 13.1279 225.687 12.4239V11.7519C225.687 11.0479 225.143 10.5039 224.439 10.5039Z" fill="white"/>
<path d="M248.591 6.43993C251.023 6.43993 252.975 8.39193 252.975 10.8239V24.7439H237.967C235.535 24.7439 233.583 22.7599 233.583 20.3599V17.9599C233.583 15.5279 235.567 13.5759 237.967 13.5759H248.335V11.7519C248.335 11.0479 247.791 10.5039 247.087 10.5039H234.703V6.43993H248.591ZM239.471 20.6799H248.335V17.6079H239.471C238.799 17.6079 238.223 18.1519 238.223 18.8559V19.4319C238.223 20.1359 238.799 20.6799 239.471 20.6799Z" fill="white"/>
<path d="M256.809 0.231934H261.449V24.7439H256.809V0.231934Z" fill="white"/>
<path d="M264.989 20.3599V10.8239C264.989 8.39193 266.941 6.43993 269.373 6.43993H280.317C282.749 6.43993 284.701 8.42393 284.701 10.8239V13.2239C284.701 15.6559 282.749 17.6079 280.317 17.6079H269.629V19.4319C269.629 20.1359 270.173 20.6799 270.877 20.6799H283.901V24.7439H269.373C266.941 24.7439 264.989 22.7599 264.989 20.3599ZM278.813 10.5039H270.877C270.173 10.5039 269.629 11.0479 269.629 11.7519V13.6719H278.813C279.517 13.6719 280.061 13.1279 280.061 12.4239V11.7519C280.061 11.0479 279.517 10.5039 278.813 10.5039Z" fill="white"/>
<path d="M292.63 6.43993H303.03V10.5679H294.134C293.43 10.5679 292.886 11.1119 292.886 11.8159V24.7439H288.246V10.8239C288.246 8.48793 290.166 6.43993 292.63 6.43993Z" fill="white"/>
<path d="M334.39 2.34393V20.6159H339.99C340.758 20.6159 341.366 20.0079 341.366 19.2399V2.34393H346.262V19.8799C346.262 22.4399 344.054 24.7439 341.366 24.7439H317.75V2.34393H322.646V20.6159H329.526V2.34393H334.39Z" fill="white"/>
<path d="M365.509 6.43993C367.845 6.43993 369.893 8.39193 369.893 10.8239V20.3599C369.893 22.6959 367.973 24.7439 365.509 24.7439H354.373C352.069 24.7439 349.989 22.7919 349.989 20.3599V10.8239C349.989 8.51993 351.941 6.43993 354.373 6.43993H365.509ZM365.253 19.3679V11.8159C365.253 11.1119 364.677 10.5679 364.005 10.5679H355.877C355.205 10.5679 354.629 11.1119 354.629 11.8159V19.3679C354.629 20.0719 355.205 20.6159 355.877 20.6159H364.005C364.677 20.6159 365.253 20.0719 365.253 19.3679Z" fill="white"/>
<path d="M377.818 6.43993H388.218V10.5679H379.322C378.618 10.5679 378.074 11.1119 378.074 11.8159V24.7439H373.434V10.8239C373.434 8.48793 375.354 6.43993 377.818 6.43993Z" fill="white"/>
<path d="M390.777 0.231934H395.417V24.7439H390.777V0.231934Z" fill="white"/>
<path d="M398.958 20.3599V10.8239C398.958 8.48793 400.878 6.43993 403.342 6.43993H413.87V0.231934H418.51V24.7439H403.342C401.006 24.7439 398.958 22.8239 398.958 20.3599ZM403.598 11.8159V19.3679C403.598 20.0719 404.142 20.6159 404.846 20.6159H413.87V10.5679H404.846C404.142 10.5679 403.598 11.1119 403.598 11.8159Z" fill="white"/>
</svg>
